<svg width="264" height="274" viewBox="0 0 264 274" fill="none" xmlns="http://www.w3.org/2000/svg">
<path d="M263.585 107.865C267.231 125.655 226.122 157.689 199.219 178.174C171.63 198.844 158.498 207.529 142.761 225.747C127.276 243.529 109.186 270.845 91.7267 272.964C73.8327 274.833 56.3182 251.94 46.218 229.262C36.5526 206.835 34.2333 185.744 23.6726 155.829C13.3635 125.478 -5.43853 86.7381 2.83277 54.3342C10.6692 21.6793 45.579 -4.63972 77.2058 0.839624C108.146 6.50359 135.804 43.9659 173.706 64.6871C211.609 85.4084 259.757 89.3886 263.585 107.865Z" fill="url(#paint0_linear_15_264)"/>
<defs>
<linearGradient id="paint0_linear_15_264" x1="-74" y1="182.114" x2="260.418" y2="77.1888" gradientUnits="userSpaceOnUse">
<stop stop-color="#F87537"/>
<stop offset="1" stop-color="#FBA81F"/>
</linearGradient>
</defs>
</svg>
